<svg width="55" height="58" viewBox="0 0 55 58" fill="none" xmlns="http://www.w3.org/2000/svg">
<path d="M27.5748 48.3146C27.5808 51.305 27.5828 54.2933 27.597 57.2838C27.597 57.5676 27.496 57.6323 27.2454 57.6302C26.1079 57.6198 24.9704 57.6114 23.8329 57.6302C23.4794 57.6365 23.4693 57.457 23.4713 57.1836C23.4794 55.5935 23.4612 54.0033 23.4854 52.4131C23.4915 52.0437 23.3783 51.9102 23.0409 51.8392C20.277 51.2591 17.7192 50.1551 15.3613 48.5608C15.034 48.3396 14.838 48.2958 14.5309 48.6297C13.4945 49.7566 12.4075 50.8334 11.3528 51.9415C11.1124 52.194 10.973 52.2608 10.6901 51.9623C8.95661 50.1364 7.20087 48.3312 5.44108 46.5345C5.2148 46.3028 5.23298 46.186 5.44715 45.9689C6.5806 44.8191 7.69183 43.6463 8.82528 42.4964C9.0253 42.294 9.02732 42.1563 8.88387 41.9309C7.27562 39.4163 6.14823 36.6909 5.58857 33.7255C5.52796 33.4083 5.36229 33.3749 5.09963 33.3769C3.56008 33.3874 2.02052 33.3707 0.48096 33.3916C0.113244 33.3957 -0.0039404 33.3081 0.00010043 32.9095C0.0182842 30.4032 0.0162638 27.8969 0.00010043 25.3906C-0.00191999 25.0025 0.0708154 24.8543 0.489042 24.8626C2.0286 24.8919 3.56816 24.8626 5.10771 24.8835C5.42694 24.8877 5.54412 24.7708 5.6007 24.4703C6.15631 21.5592 7.25542 18.8776 8.83942 16.4109C9.04551 16.0896 8.995 15.9205 8.75457 15.6764C7.64334 14.5516 6.55635 13.4038 5.43906 12.2853C5.20672 12.0515 5.22894 11.9409 5.4431 11.7218C7.21299 9.91043 8.97681 8.09279 10.7265 6.25846C10.977 5.99552 11.0982 6.0623 11.3104 6.2835C12.3772 7.40413 13.4682 8.49972 14.5269 9.62871C14.7936 9.91252 14.9734 9.96886 15.3149 9.73513C17.6909 8.1074 20.275 6.98885 23.0753 6.41706C23.3682 6.35654 23.4834 6.23968 23.4794 5.90996C23.4612 4.31978 23.4794 2.72961 23.4632 1.13944C23.4592 0.774241 23.5157 0.621902 23.9198 0.632336C25.023 0.663639 26.1281 0.649031 27.2333 0.638596C27.4717 0.638596 27.597 0.674073 27.595 0.972491C27.5808 3.96293 27.5788 6.95129 27.5727 9.94173C27.4091 10.1045 27.201 10.0753 27.003 10.0795C24.7361 10.1358 22.5439 10.5991 20.471 11.5319C15.9755 13.5561 12.6802 16.8826 10.6558 21.507C9.39908 24.3806 8.9263 27.4274 9.17077 30.5555C9.51828 35.0089 11.171 38.8966 14.143 42.1709C16.2564 44.4998 18.7758 46.1881 21.6913 47.2085C23.3884 47.8012 25.1462 48.1622 26.9525 48.181C27.1666 48.1831 27.3929 48.1434 27.5727 48.3187L27.5748 48.3146Z" fill="#487FAD"/>
<path d="M27.5747 48.3139C17.4989 48.4266 8.77068 39.6431 8.99292 28.6392C9.19496 18.6453 17.3817 9.85138 27.5747 9.94111C27.5808 11.116 27.5686 12.2909 27.601 13.4658C27.6111 13.8623 27.3767 13.8247 27.1585 13.8331C25.3724 13.8915 23.6389 14.2275 22.0004 14.9662C16.9998 17.2158 13.8702 21.112 12.9933 26.6609C12.1347 32.0908 13.7591 36.7737 17.7494 40.5091C19.9234 42.5438 22.4792 43.7521 25.3563 44.2488C25.9806 44.3573 26.615 44.422 27.2514 44.3886C27.5121 44.374 27.5989 44.4658 27.5949 44.7413C27.5767 45.9328 27.5787 47.1244 27.5727 48.3181L27.5747 48.3139Z" fill="#82B4DF"/>
<path d="M27.4252 48.3127C27.4192 51.3032 27.4172 54.2915 27.403 57.282C27.403 57.5658 27.504 57.6305 27.7546 57.6284C28.8921 57.6179 30.0296 57.6096 31.1671 57.6284C31.5206 57.6346 31.5307 57.4552 31.5287 57.1818C31.5206 55.5916 31.5388 54.0014 31.5146 52.4113C31.5085 52.0419 31.6217 51.9083 31.9591 51.8374C34.723 51.2573 37.2808 50.1533 39.6387 48.559C39.966 48.3378 40.162 48.2939 40.4691 48.6278C41.5055 49.7547 42.5925 50.8315 43.6472 51.9397C43.8876 52.1922 44.027 52.2589 44.3099 51.9605C46.0434 50.1345 47.7991 48.3294 49.5589 46.5326C49.7852 46.301 49.767 46.1841 49.5529 45.9671C48.4194 44.8173 47.3082 43.6445 46.1747 42.4946C45.9747 42.2922 45.9727 42.1545 46.1161 41.9291C47.7244 39.4144 48.8518 36.689 49.4114 33.7236C49.472 33.4064 49.6377 33.373 49.9004 33.3751C51.4399 33.3856 52.9795 33.3689 54.519 33.3897C54.8868 33.3939 55.0039 33.3063 54.9999 32.9077C54.9817 30.4014 54.9837 27.8951 54.9999 25.3888C55.0019 25.0006 54.9292 24.8525 54.511 24.8608C52.9714 24.89 51.4318 24.8608 49.8923 24.8817C49.5731 24.8859 49.4559 24.769 49.3993 24.4685C48.8437 21.5573 47.7446 18.8758 46.1606 16.4091C45.9545 16.0877 46.005 15.9187 46.2454 15.6745C47.3567 14.5497 48.4436 13.402 49.5609 12.2834C49.7933 12.0497 49.7711 11.9391 49.5569 11.72C47.787 9.9086 46.0232 8.09096 44.2735 6.25663C44.023 5.99368 43.9018 6.06046 43.6896 6.28167C42.6228 7.4023 41.5318 8.49789 40.4731 9.62687C40.2064 9.91068 40.0266 9.96703 39.6851 9.7333C37.3091 8.10557 34.725 6.98702 31.9247 6.41523C31.6318 6.35471 31.5166 6.23785 31.5206 5.90812C31.5388 4.31795 31.5206 2.72778 31.5368 1.13761C31.5408 0.77241 31.4843 0.620071 31.0802 0.630505C29.977 0.661807 28.8719 0.6472 27.7667 0.636765C27.5283 0.636765 27.403 0.672242 27.405 0.97066C27.4192 3.9611 27.4212 6.94946 27.4273 9.9399C27.5909 10.1027 27.799 10.0735 27.997 10.0776C30.2639 10.134 32.4561 10.5973 34.529 11.5301C39.0245 13.5543 42.3198 16.8807 44.3442 21.5052C45.6009 24.3787 46.0737 27.4255 45.8292 30.5537C45.4817 35.007 43.829 38.8948 40.857 42.1691C38.7436 44.498 36.2242 46.1862 33.3087 47.2067C31.6116 47.7994 29.8538 48.1604 28.0475 48.1792C27.8334 48.1813 27.6071 48.1416 27.4273 48.3169L27.4252 48.3127Z" fill="#487FAD"/>
<path d="M27.4253 48.3127C37.5011 48.4254 46.2293 39.6419 46.0071 28.638C45.805 18.6441 37.6183 9.85016 27.4253 9.93989C27.4192 11.1148 27.4314 12.2897 27.399 13.4646C27.3889 13.8611 27.6233 13.8235 27.8415 13.8318C29.6276 13.8903 31.3611 14.2263 32.9996 14.965C38.0002 17.2146 41.1298 21.1107 42.0067 26.6597C42.8653 32.0896 41.2409 36.7725 37.2506 40.5079C35.0766 42.5426 32.5208 43.7509 29.6437 44.2475C29.0194 44.3561 28.385 44.4208 27.7486 44.3874C27.4879 44.3728 27.4011 44.4646 27.4051 44.74C27.4233 45.9316 27.4213 47.1232 27.4273 48.3169L27.4253 48.3127Z" fill="#487FAD"/>
<path d="M27.4253 9.94534C37.5011 9.83265 46.2293 18.6162 46.007 29.6201C45.805 39.6139 37.6183 48.4079 27.4253 48.3182C27.4192 47.1433 27.4313 45.9684 27.399 44.7935C27.3889 44.397 27.6233 44.4345 27.8415 44.4262C29.6275 44.3678 31.361 44.0318 32.9996 43.293C38.0001 41.0434 41.1298 37.1473 42.0066 31.5984C42.8653 26.1684 41.2409 21.4856 37.2505 17.7501C35.0766 15.7154 32.5208 14.5072 29.6437 14.0105C29.0194 13.902 28.385 13.8373 27.7485 13.8707C27.4879 13.8853 27.401 13.7935 27.4051 13.518C27.4232 12.3264 27.4212 11.1348 27.4273 9.94116L27.4253 9.94534Z" fill="#82B4DF"/>
<path d="M43.1117 20.0769C43.3683 20.0602 43.2754 20.2501 43.241 20.3816C43.0572 21.1057 42.8672 21.8278 42.6793 22.5498C42.3258 23.9146 41.9722 25.2794 41.6166 26.6442C41.5863 26.7632 41.5863 26.9301 41.4752 26.9718C41.3216 27.0303 41.2529 26.8529 41.162 26.759C40.9034 26.4981 40.6508 26.2289 40.3942 25.9639C40.0629 25.6217 40.0589 25.6196 39.7376 25.9514C38.5597 27.1659 37.3838 28.3846 36.2059 29.5992C34.5451 31.3146 32.8783 33.0258 31.2256 34.7516C30.9953 34.9916 30.8559 35.0103 30.6175 34.7578C29.4234 33.4995 28.2071 32.2662 27.011 31.0099C26.7686 30.7553 26.6291 30.7365 26.3705 31.0057C24.3582 33.1051 22.3317 35.1877 20.3073 37.2746C19.9557 37.6356 19.9557 37.6335 19.5941 37.2579C19.1597 36.805 18.7111 36.3647 18.2909 35.8973C18.1151 35.7011 18.0222 35.7178 17.8504 35.8973C16.8726 36.9261 15.8825 37.9424 14.8925 38.9607C14.3713 39.4971 14.4723 39.4532 14.0056 38.9774C13.5187 38.4808 13.0418 37.9716 12.5489 37.4812C12.3529 37.2871 12.3327 37.1494 12.5388 36.9386C14.3006 35.1314 16.0583 33.3158 17.808 31.4961C18.008 31.2895 18.1394 31.2916 18.3333 31.5003C18.7778 31.9823 19.2526 32.4331 19.691 32.9214C19.9012 33.1551 20.0224 33.1364 20.2345 32.9172C22.2772 30.7908 24.336 28.681 26.3766 26.5524C26.613 26.3061 26.7484 26.2936 26.9847 26.5419C28.1909 27.8066 29.4173 29.0503 30.6215 30.317C30.8579 30.5654 30.9852 30.5612 31.2216 30.3129C33.3107 28.1363 35.4139 25.9743 37.5131 23.8082C37.7785 23.5341 37.7765 23.2593 37.5071 22.9839C37.2788 22.7502 37.0484 22.5164 36.8201 22.2827C36.7272 22.1888 36.5514 22.1262 36.5837 21.9739C36.6201 21.8006 36.8161 21.8173 36.9494 21.7798C37.6606 21.5774 38.3738 21.3812 39.087 21.185C40.3175 20.8428 41.5479 20.5005 42.7804 20.1583C42.8834 20.1291 42.9885 20.1061 43.1117 20.0748V20.0769Z" fill="#487FAD"/>
<path d="M32.0095 39.0171C32.0095 40.1126 32.0095 41.2061 32.0095 42.3017C32.0095 42.8881 32.0074 42.8861 31.4478 43.0593C28.7869 43.8815 26.1321 43.7938 23.4793 43.0071C23.2247 42.932 23.1378 42.7984 23.1378 42.5355C23.1439 40.2483 23.1439 37.9632 23.1419 35.676C23.1419 35.4819 23.2025 35.338 23.3378 35.2002C24.3723 34.1338 25.4067 33.0675 26.4271 31.9886C26.6715 31.7298 26.813 31.8759 26.9847 32.0554C28.1586 33.272 29.3344 34.4865 30.5103 35.7011C30.7837 35.9835 31.0605 35.9807 31.3407 35.6927C31.4741 35.555 31.6034 35.4152 31.7387 35.2816C31.9105 35.1126 31.9933 35.1814 32.0074 35.4006C32.0135 35.4966 32.0115 35.5946 32.0115 35.6906C32.0115 36.7987 32.0115 37.9069 32.0115 39.0171H32.0095Z" fill="#E38B06"/>
<path d="M27.9445 14.6282C31.5206 14.6699 34.9068 16.1599 37.7071 19.0815C37.8486 19.2297 37.9617 19.405 38.1072 19.5469C38.3234 19.7597 38.3052 19.8787 38.0082 19.958C37.3718 20.127 36.7353 20.3023 36.1029 20.4859C35.911 20.5402 35.7716 20.4985 35.6322 20.3545C34.3351 19.0085 32.7854 18.0735 31.0337 17.5456C27.1525 16.379 23.5642 17.0406 20.3477 19.5928C18.1475 21.3374 16.7595 23.6496 16.125 26.4313C15.7937 27.8859 15.7149 29.3634 15.9634 30.8471C16.0079 31.1142 15.9574 31.3187 15.7553 31.5149C15.2745 31.9782 14.8158 32.4665 14.3531 32.9485C14.1854 33.1238 14.0804 33.1489 14.0077 32.863C13.5834 31.1977 13.4339 29.5094 13.5955 27.7961C13.7531 26.1413 14.141 24.5511 14.8239 23.0402C16.0826 20.2522 18.004 18.0923 20.578 16.5543C22.7278 15.2688 25.0533 14.6428 27.9425 14.6303L27.9445 14.6282Z" fill="#E38B06"/>
<path d="M32.7974 38.3931C32.7974 37.1305 32.8055 35.868 32.7914 34.6076C32.7873 34.305 32.8843 34.0838 33.0884 33.8751C35.3068 31.5962 37.5212 29.3153 39.7254 27.0219C39.9659 26.7715 40.1174 26.7172 40.3619 27.0094C40.6851 27.3975 41.0488 27.7502 41.4064 28.105C41.5438 28.2406 41.6105 28.3846 41.6145 28.5766C41.6792 31.5065 41.0165 34.234 39.5295 36.7424C38.0182 39.2904 35.8968 41.1206 33.2985 42.3894C33.2621 42.4082 33.2237 42.4228 33.1874 42.4374C32.7894 42.5981 32.7914 42.5981 32.7934 42.139C32.7934 40.891 32.7934 39.6431 32.7934 38.3952L32.7974 38.3931Z" fill="#E38B06"/>
<path d="M22.356 39.4094C22.356 40.3109 22.358 41.2124 22.356 42.1118C22.356 42.5167 22.2792 42.5793 21.9418 42.4248C20.57 41.8009 19.3193 40.9766 18.2061 39.9352C17.7192 39.4803 17.2545 39.0024 16.8261 38.4849C16.6625 38.2866 16.6807 38.1677 16.8484 38.0028C17.1797 37.6794 17.503 37.3455 17.8161 37.0032C17.9919 36.8091 18.1293 36.7925 18.3132 36.9907C18.7011 37.4102 19.1112 37.8046 19.4991 38.224C19.9254 38.6852 19.9679 38.6915 20.4124 38.2324C20.9518 37.6731 21.4913 37.1138 22.0348 36.5587C22.1055 36.4857 22.1722 36.3459 22.2893 36.4022C22.4045 36.4565 22.354 36.6005 22.354 36.7048C22.358 37.6063 22.354 38.5078 22.354 39.4073L22.356 39.4094Z" fill="#E38B06"/>
</svg>
