<svg width="914" height="245" viewBox="0 0 914 245" fill="none" xmlns="http://www.w3.org/2000/svg">
<path d="M286.204 213.704H301.66V217.288H289.948V223.496H300.38V227.112H289.948V233.416H302.108V237H286.204V213.704ZM317.955 228.36H323.939V231.496H317.955V228.36ZM341.337 237V212.872H341.369L353.913 230.632L352.313 230.28L364.793 212.872H364.857V237H361.145V221.288L361.401 223.208L352.985 235.112H352.921L344.313 223.208L344.953 221.448V237H341.337ZM380.971 237L391.275 212.744H391.499L401.803 237H397.515L390.251 218.6L392.939 216.776L384.651 237H380.971ZM387.435 228.36H395.403L396.683 231.528H386.315L387.435 228.36ZM438.418 237.832L420.53 220.488L421.618 220.936L421.714 237H417.938V212.904H418.098L435.73 230.248L434.866 229.992L434.802 213.704H438.514V237.832H438.418ZM454.666 237L464.97 212.744H465.194L475.498 237H471.21L463.946 218.6L466.634 216.776L458.346 237H454.666ZM461.13 228.36H469.098L470.378 231.528H460.01L461.13 228.36ZM509.255 234.856C508.956 235.155 508.508 235.443 507.911 235.72C507.335 235.997 506.684 236.253 505.959 236.488C505.233 236.723 504.487 236.904 503.719 237.032C502.951 237.181 502.225 237.256 501.543 237.256C499.665 237.256 497.969 236.968 496.455 236.392C494.961 235.816 493.671 235.027 492.583 234.024C491.516 233 490.695 231.795 490.119 230.408C489.564 229.021 489.287 227.517 489.287 225.896C489.287 223.869 489.607 222.088 490.247 220.552C490.887 218.995 491.761 217.693 492.871 216.648C493.98 215.581 495.249 214.781 496.679 214.248C498.129 213.715 499.655 213.448 501.255 213.448C502.663 213.448 503.964 213.608 505.159 213.928C506.375 214.248 507.409 214.653 508.263 215.144L507.047 218.6C506.641 218.365 506.119 218.141 505.479 217.928C504.839 217.693 504.188 217.512 503.527 217.384C502.887 217.256 502.289 217.192 501.735 217.192C500.391 217.192 499.185 217.384 498.119 217.768C497.073 218.131 496.177 218.675 495.431 219.4C494.684 220.125 494.108 221.011 493.703 222.056C493.319 223.08 493.127 224.253 493.127 225.576C493.127 226.771 493.329 227.859 493.735 228.84C494.161 229.821 494.748 230.664 495.495 231.368C496.263 232.072 497.159 232.616 498.183 233C499.228 233.363 500.38 233.544 501.639 233.544C502.364 233.544 503.068 233.48 503.751 233.352C504.433 233.224 505.009 233.021 505.479 232.744V228.872H501.127V225.288H509.255V234.856ZM527.074 213.704H542.53V217.288H530.818V223.496H541.25V227.112H530.818V233.416H542.978V237H527.074V213.704ZM560.297 237V212.872H560.329L572.873 230.632L571.273 230.28L583.753 212.872H583.817V237H580.105V221.288L580.361 223.208L571.945 235.112H571.881L563.273 223.208L563.913 221.448V237H560.297ZM602.363 213.704H617.819V217.288H606.107V223.496H616.539V227.112H606.107V233.416H618.267V237H602.363V213.704ZM656.065 237.832L638.177 220.488L639.265 220.936L639.361 237H635.585V212.904H635.745L653.377 230.248L652.513 229.992L652.449 213.704H656.161V237.832H656.065ZM673.081 213.704H688.665V217.288H682.649V237H678.937V217.288H673.081V213.704ZM740.196 218.44C739.364 218.013 738.478 217.651 737.54 217.352C736.601 217.032 735.705 216.872 734.852 216.872C733.7 216.872 732.782 217.128 732.1 217.64C731.438 218.152 731.108 218.856 731.108 219.752C731.108 220.392 731.342 220.957 731.812 221.448C732.281 221.917 732.878 222.333 733.604 222.696C734.329 223.037 735.097 223.368 735.908 223.688C736.612 223.944 737.305 224.253 737.988 224.616C738.692 224.957 739.321 225.384 739.876 225.896C740.43 226.408 740.868 227.048 741.188 227.816C741.529 228.563 741.7 229.491 741.7 230.6C741.7 231.816 741.39 232.936 740.772 233.96C740.153 234.963 739.268 235.763 738.116 236.36C736.964 236.957 735.556 237.256 733.892 237.256C732.932 237.256 731.982 237.149 731.044 236.936C730.126 236.723 729.252 236.435 728.42 236.072C727.588 235.688 726.82 235.261 726.116 234.792L727.78 231.88C728.292 232.264 728.878 232.616 729.54 232.936C730.201 233.256 730.884 233.512 731.588 233.704C732.292 233.875 732.953 233.96 733.572 233.96C734.233 233.96 734.884 233.853 735.524 233.64C736.185 233.427 736.729 233.075 737.156 232.584C737.604 232.093 737.828 231.443 737.828 230.632C737.828 229.971 737.636 229.405 737.252 228.936C736.868 228.467 736.366 228.061 735.748 227.72C735.15 227.357 734.489 227.037 733.764 226.76C733.038 226.483 732.292 226.173 731.524 225.832C730.777 225.491 730.084 225.075 729.444 224.584C728.804 224.072 728.281 223.453 727.876 222.728C727.47 222.003 727.268 221.107 727.268 220.04C727.268 218.76 727.566 217.651 728.164 216.712C728.761 215.773 729.582 215.027 730.628 214.472C731.694 213.917 732.921 213.619 734.308 213.576C735.95 213.576 737.348 213.779 738.5 214.184C739.673 214.568 740.708 215.037 741.604 215.592L740.196 218.44ZM764.901 229.448L756.293 213.704H760.869L767.429 226.248L766.309 226.312L772.773 213.704H777.349L768.613 229.448V237H764.901V229.448ZM804.734 218.44C803.902 218.013 803.017 217.651 802.078 217.352C801.14 217.032 800.244 216.872 799.39 216.872C798.238 216.872 797.321 217.128 796.638 217.64C795.977 218.152 795.646 218.856 795.646 219.752C795.646 220.392 795.881 220.957 796.35 221.448C796.82 221.917 797.417 222.333 798.142 222.696C798.868 223.037 799.636 223.368 800.446 223.688C801.15 223.944 801.844 224.253 802.526 224.616C803.23 224.957 803.86 225.384 804.414 225.896C804.969 226.408 805.406 227.048 805.726 227.816C806.068 228.563 806.238 229.491 806.238 230.6C806.238 231.816 805.929 232.936 805.31 233.96C804.692 234.963 803.806 235.763 802.654 236.36C801.502 236.957 800.094 237.256 798.43 237.256C797.47 237.256 796.521 237.149 795.582 236.936C794.665 236.723 793.79 236.435 792.958 236.072C792.126 235.688 791.358 235.261 790.654 234.792L792.318 231.88C792.83 232.264 793.417 232.616 794.078 232.936C794.74 233.256 795.422 233.512 796.126 233.704C796.83 233.875 797.492 233.96 798.11 233.96C798.772 233.96 799.422 233.853 800.062 233.64C800.724 233.427 801.268 233.075 801.694 232.584C802.142 232.093 802.366 231.443 802.366 230.632C802.366 229.971 802.174 229.405 801.79 228.936C801.406 228.467 800.905 228.061 800.286 227.72C799.689 227.357 799.028 227.037 798.302 226.76C797.577 226.483 796.83 226.173 796.062 225.832C795.316 225.491 794.622 225.075 793.982 224.584C793.342 224.072 792.82 223.453 792.414 222.728C792.009 222.003 791.806 221.107 791.806 220.04C791.806 218.76 792.105 217.651 792.702 216.712C793.3 215.773 794.121 215.027 795.166 214.472C796.233 213.917 797.46 213.619 798.846 213.576C800.489 213.576 801.886 213.779 803.038 214.184C804.212 214.568 805.246 215.037 806.142 215.592L804.734 218.44ZM821.538 213.704H837.122V217.288H831.106V237H827.394V217.288H821.538V213.704ZM854.018 213.704H869.474V217.288H857.762V223.496H868.194V227.112H857.762V233.416H869.922V237H854.018V213.704ZM887.24 237V212.872H887.272L899.816 230.632L898.216 230.28L910.696 212.872H910.76V237H907.048V221.288L907.304 223.208L898.888 235.112H898.824L890.216 223.208L890.856 221.448V237H887.24Z" fill="#E38B06"/>
<path d="M115.155 206.674C73.077 207.138 36.6273 171.003 37.5554 125.734C38.3992 84.6204 72.5877 48.443 115.155 48.8121C115.18 53.6455 115.129 58.4789 115.264 63.3123C115.306 64.9435 114.328 64.7889 113.416 64.8233C105.958 65.0636 98.7184 66.4458 91.8756 69.485C70.993 78.7396 57.9234 94.7679 54.2616 117.596C50.6756 139.934 57.4593 159.199 74.1233 174.566C83.202 182.937 93.8753 187.907 105.89 189.951C108.497 190.397 111.147 190.663 113.805 190.526C114.893 190.466 115.256 190.843 115.239 191.977C115.163 196.879 115.171 201.781 115.146 206.691L115.155 206.674Z" fill="#487FAD"/>
<path fill-rule="evenodd" clip-rule="evenodd" d="M114.847 244.776C115.084 244.944 115.43 244.997 115.906 244.993C120.656 244.95 125.406 244.916 130.156 244.993C131.633 245.019 131.675 244.28 131.667 243.156C131.654 240.654 131.657 238.153 131.66 235.652C131.665 231.611 131.67 227.571 131.608 223.53C131.582 222.011 132.055 221.461 133.464 221.169C145.006 218.783 155.688 214.241 165.535 207.682C166.901 206.772 167.72 206.592 169.002 207.966C171.654 210.805 174.384 213.567 177.114 216.329C178.841 218.077 180.568 219.824 182.274 221.59C183.278 222.629 183.861 222.904 185.042 221.676C192.281 214.164 199.613 206.738 206.962 199.346C207.907 198.393 207.831 197.912 206.937 197.02C204.57 194.654 202.227 192.265 199.883 189.877C197.54 187.488 195.196 185.099 192.83 182.734C191.994 181.901 191.986 181.335 192.585 180.407C199.301 170.062 204.009 158.85 206.346 146.651C206.6 145.346 207.291 145.209 208.388 145.217C211.084 145.235 213.781 145.234 216.477 145.232C220.21 145.23 223.943 145.228 227.676 145.277C229.212 145.295 229.701 144.934 229.684 143.294C229.608 132.984 229.617 122.673 229.684 112.362C229.693 110.765 229.389 110.156 227.643 110.19C224.181 110.255 220.719 110.25 217.257 110.245C214.289 110.241 211.322 110.237 208.355 110.276C207.021 110.293 206.532 109.813 206.296 108.576C203.976 96.6001 199.386 85.5683 192.771 75.4208C191.91 74.0987 192.121 73.4033 193.125 72.3988C195.178 70.3522 197.21 68.287 199.243 66.2219C201.806 63.6181 204.369 61.0144 206.971 58.4481C207.941 57.4866 207.848 57.0316 206.954 56.1301C199.563 48.6783 192.197 41.2007 184.89 33.6545C183.844 32.5727 183.338 32.8475 182.452 33.7575C180.542 35.7333 178.615 37.6901 176.687 39.647C174.116 42.2561 171.546 44.8653 169.019 47.5193C167.905 48.6869 167.155 48.9187 165.729 47.9572C155.806 41.2608 145.015 36.6592 133.32 34.3069C132.097 34.058 131.616 33.5772 131.633 32.2208C131.672 28.8565 131.671 25.4922 131.67 22.1279C131.669 18.9504 131.668 15.7728 131.7 12.5953C131.717 11.0929 131.481 10.4662 129.794 10.5091C125.571 10.6272 121.341 10.5865 117.11 10.5459C116.726 10.5422 116.341 10.5385 115.956 10.5349C115.467 10.5349 115.092 10.5701 114.838 10.7516C114.584 10.5758 114.212 10.5414 113.729 10.5414C113.344 10.545 112.959 10.5487 112.574 10.5524C108.344 10.5931 104.114 10.6337 99.8913 10.5157C98.2038 10.4727 97.9676 11.0995 97.9844 12.6018C98.0172 15.7793 98.0162 18.9567 98.0151 22.1342C98.014 25.4986 98.0129 28.8629 98.0519 32.2273C98.0688 33.5837 97.5879 34.0645 96.3644 34.3135C84.6702 36.6658 73.8787 41.2674 63.9563 47.9637C62.5303 48.9252 61.7794 48.6934 60.6657 47.5259C58.1392 44.8718 55.5687 42.2627 52.9982 39.6535C51.0703 37.6966 49.1425 35.7398 47.2333 33.764C46.3473 32.854 45.8411 32.5793 44.7948 33.661C37.488 41.2073 30.1221 48.6848 22.7309 56.1367C21.8366 57.0381 21.7438 57.4931 22.7141 58.4547C25.3162 61.0209 27.8789 63.6245 30.4417 66.2282C32.4745 68.2934 34.5073 70.3586 36.5599 72.4054C37.564 73.4098 37.7749 74.1052 36.9143 75.4273C30.2993 85.5749 25.7094 96.6067 23.3891 108.583C23.1528 109.819 22.6634 110.3 21.3303 110.283C18.363 110.243 15.3956 110.247 12.4282 110.252C8.96624 110.257 5.50429 110.262 2.04235 110.197C0.295798 110.162 -0.007943 110.772 0.000479853 112.369C0.0679847 122.679 0.0764228 132.99 0.000479853 143.301C-0.0163811 144.941 0.472984 145.301 2.0086 145.284C5.74174 145.234 9.47489 145.236 13.208 145.239C15.9042 145.24 18.6004 145.242 21.2966 145.224C22.3934 145.215 23.0853 145.353 23.3384 146.658C25.6756 158.857 30.3837 170.069 37.0999 180.414C37.699 181.341 37.6905 181.908 36.8552 182.741C34.4886 185.106 32.1452 187.494 29.8018 189.883C27.4582 192.272 25.1146 194.661 22.7478 197.026C21.8534 197.919 21.7775 198.4 22.7225 199.353C30.0715 206.744 37.4036 214.17 44.643 221.682C45.8242 222.91 46.4064 222.635 47.4104 221.597C49.1171 219.83 50.844 218.083 52.571 216.336C55.301 213.574 58.0313 210.812 60.6825 207.972C61.965 206.598 62.7835 206.779 64.1503 207.689C73.9968 214.248 84.6786 218.789 96.221 221.176C97.6301 221.468 98.1026 222.017 98.0772 223.537C98.0147 227.578 98.0198 231.618 98.0248 235.659C98.028 238.16 98.0311 240.661 98.0182 243.162C98.0098 244.287 98.0519 245.025 99.5285 244.999C104.279 244.922 109.029 244.956 113.779 244.999C114.261 245.003 114.61 244.949 114.847 244.776ZM114.848 49.0518C115.365 49.3766 115.959 49.3744 116.549 49.3721C116.672 49.3716 116.796 49.3712 116.918 49.3737C126.385 49.6055 135.539 51.5114 144.196 55.3489C162.97 63.6764 176.731 77.361 185.185 96.3855C190.433 108.207 192.408 120.741 191.387 133.61C189.936 151.931 183.034 167.925 170.622 181.395C161.797 190.976 151.275 197.921 139.1 202.119C132.013 204.557 124.672 206.042 117.129 206.12C116.984 206.121 116.837 206.118 116.69 206.115C116.049 206.101 115.402 206.087 114.837 206.45C114.275 206.094 113.632 206.108 112.995 206.121C112.848 206.125 112.701 206.128 112.556 206.126C105.013 206.049 97.6722 204.564 90.5848 202.126C78.4096 197.928 67.8881 190.982 59.0626 181.401C46.6511 167.931 39.7492 151.937 38.298 133.617C37.2771 120.748 39.2514 108.214 44.4995 96.392C52.9538 77.3675 66.7153 63.683 85.4886 55.3554C94.1454 51.5179 103.3 49.612 112.767 49.3802C112.889 49.3777 113.013 49.3782 113.136 49.3786C113.73 49.3809 114.328 49.3832 114.848 49.0518Z" fill="url(#paint0_linear_10_250)"/>
<path d="M114.53 206.669C156.608 207.133 193.057 170.998 192.129 125.729C191.286 84.6152 157.097 48.4378 114.53 48.8069C114.505 53.6403 114.555 58.4737 114.42 63.3071C114.378 64.9383 115.357 64.7837 116.268 64.8181C123.727 65.0585 130.966 66.4407 137.809 69.4798C158.692 78.7345 171.761 94.7628 175.423 117.59C179.009 139.929 172.225 159.194 155.561 174.561C146.483 182.931 135.809 187.902 123.794 189.945C121.187 190.392 118.538 190.658 115.88 190.521C114.792 190.46 114.429 190.838 114.446 191.971C114.522 196.873 114.513 201.776 114.539 206.686L114.53 206.669Z" fill="#487FAD"/>
<path d="M114.53 48.8294C156.608 48.3658 193.057 84.5003 192.129 129.769C191.286 170.883 157.097 207.061 114.53 206.691C114.505 201.858 114.556 197.025 114.421 192.191C114.378 190.56 115.357 190.715 116.268 190.68C123.727 190.44 130.966 189.058 137.809 186.019C158.692 176.764 171.761 160.736 175.423 137.908C179.009 115.57 172.225 96.3047 155.561 80.9375C146.483 72.5671 135.809 67.5963 123.794 65.5531C121.187 65.1066 118.538 64.8405 115.88 64.9779C114.792 65.038 114.429 64.6602 114.446 63.527C114.522 58.6249 114.513 53.7228 114.539 48.8122L114.53 48.8294Z" fill="#487FAD"/>
<path d="M180.039 90.5098C181.11 90.4411 180.722 91.2224 180.578 91.7632C179.811 94.7422 179.018 97.7127 178.233 100.683C176.756 106.298 175.28 111.912 173.795 117.527C173.668 118.016 173.668 118.703 173.204 118.875C172.563 119.115 172.276 118.385 171.896 117.999C170.816 116.926 169.762 115.819 168.69 114.728C167.306 113.32 167.29 113.312 165.948 114.677C161.029 119.673 156.118 124.687 151.199 129.683C144.264 136.74 137.303 143.78 130.401 150.88C129.439 151.867 128.857 151.944 127.861 150.906C122.875 145.729 117.796 140.655 112.801 135.487C111.788 134.44 111.206 134.362 110.126 135.47C101.722 144.106 93.2595 152.674 84.8052 161.259C83.3371 162.745 83.3371 162.736 81.8268 161.191C80.0127 159.328 78.1396 157.516 76.3846 155.593C75.6506 154.786 75.2624 154.855 74.5452 155.593C70.4615 159.826 66.3272 164.007 62.1928 168.196C60.016 170.402 60.4379 170.222 58.4888 168.265C56.4554 166.221 54.4641 164.127 52.4054 162.109C51.587 161.311 51.5026 160.744 52.3632 159.877C59.7207 152.442 67.0612 144.973 74.3681 137.487C75.2034 136.637 75.7518 136.646 76.5618 137.504C78.418 139.488 80.4008 141.342 82.2317 143.351C83.1092 144.312 83.6155 144.235 84.5014 143.334C93.0317 134.586 101.629 125.906 110.151 117.149C111.138 116.136 111.704 116.085 112.691 117.106C117.728 122.309 122.85 127.426 127.878 132.637C128.865 133.658 129.397 133.641 130.384 132.62C139.109 123.665 147.892 114.771 156.658 105.86C157.766 104.732 157.758 103.602 156.633 102.469C155.68 101.507 154.718 100.546 153.764 99.5842C153.376 99.1979 152.642 98.9403 152.777 98.3136C152.929 97.6011 153.747 97.6698 154.304 97.5152C157.274 96.6825 160.253 95.8755 163.231 95.0685C168.37 93.6605 173.508 92.2526 178.655 90.8446C179.085 90.7244 179.524 90.63 180.039 90.5012V90.5098Z" fill="#1A2850"/>
<path d="M133.675 168.428C133.675 172.935 133.675 177.434 133.675 181.941C133.675 184.353 133.666 184.345 131.329 185.057C120.217 188.44 109.13 188.079 98.052 184.843C96.9889 184.533 96.6261 183.984 96.6261 182.902C96.6514 173.493 96.6514 164.092 96.643 154.683C96.643 153.885 96.8961 153.292 97.4614 152.726C101.781 148.339 106.101 143.952 110.362 139.513C111.383 138.449 111.974 139.05 112.691 139.788C117.593 144.793 122.504 149.79 127.414 154.786C128.556 155.948 129.712 155.937 130.882 154.752C131.439 154.185 131.979 153.61 132.544 153.061C133.261 152.365 133.607 152.649 133.666 153.55C133.692 153.945 133.683 154.348 133.683 154.743C133.683 159.302 133.683 163.861 133.683 168.428H133.675Z" fill="#E38B06"/>
<path d="M116.699 68.0944C131.633 68.2661 145.774 74.3958 157.468 86.4149C158.059 87.0244 158.531 87.7456 159.139 88.3294C160.042 89.205 159.966 89.6944 158.726 90.0206C156.068 90.716 153.41 91.4371 150.769 92.1926C149.967 92.4158 149.385 92.2441 148.803 91.6518C143.386 86.1144 136.915 82.2683 129.599 80.0963C113.391 75.2972 98.4063 78.0187 84.9739 88.5182C75.7855 95.6953 69.989 105.208 67.3396 116.651C65.9559 122.635 65.6268 128.713 66.6646 134.817C66.8503 135.916 66.6393 136.758 65.7956 137.565C63.7875 139.471 61.8722 141.479 59.94 143.463C59.2397 144.184 58.801 144.287 58.4972 143.111C56.7253 136.26 56.101 129.314 56.776 122.266C57.4341 115.458 59.0541 108.916 61.9059 102.701C67.1624 91.2311 75.1864 82.3456 85.9357 76.0184C94.9132 70.73 104.625 68.1545 116.69 68.1029L116.699 68.0944Z" fill="#E38B06"/>
<path d="M136.965 165.861C136.965 160.667 136.999 155.473 136.94 150.288C136.923 149.043 137.328 148.133 138.18 147.274C147.445 137.899 156.692 128.516 165.897 119.081C166.901 118.051 167.534 117.827 168.555 119.029C169.905 120.626 171.424 122.077 172.917 123.536C173.491 124.095 173.769 124.687 173.786 125.477C174.056 137.53 171.289 148.751 165.079 159.07C158.768 169.552 149.908 177.082 139.058 182.301C138.906 182.379 138.746 182.439 138.594 182.499C136.932 183.16 136.94 183.16 136.948 181.271C136.948 176.137 136.948 171.003 136.948 165.869L136.965 165.861Z" fill="#E38B06"/>
<path d="M93.3608 170.042C93.3608 173.751 93.3692 177.459 93.3608 181.16C93.3608 182.825 93.0401 183.083 91.6311 182.447C85.9021 179.88 80.6793 176.489 76.0303 172.205C73.9969 170.334 72.0562 168.368 70.2675 166.239C69.5841 165.423 69.66 164.934 70.3603 164.256C71.7441 162.925 73.094 161.551 74.4019 160.143C75.1359 159.345 75.7097 159.276 76.4775 160.092C78.0975 161.817 79.8102 163.44 81.4302 165.166C83.2105 167.063 83.3877 167.089 85.244 165.2C87.4968 162.899 89.7496 160.598 92.0192 158.315C92.3145 158.014 92.593 157.439 93.0823 157.671C93.5633 157.894 93.3523 158.486 93.3523 158.916C93.3692 162.624 93.3523 166.333 93.3523 170.033L93.3608 170.042Z" fill="#E38B06"/>
<path d="M297.332 161.63V143.48H350.282V161.63H297.332ZM297.332 74.7798V56.6298H350.282V74.7798H297.332ZM297.332 114.83V96.9798H347.282V114.83H297.332ZM283.532 56.6298H304.232V161.63H283.532V56.6298ZM391.522 102.68L384.772 161.63H362.422L378.022 51.3798L421.972 119.18L465.922 51.3798L481.522 161.63H459.172L452.422 102.68L421.972 151.88L391.522 102.68ZM504.504 126.38C506.704 130.28 509.104 133.68 511.704 136.58C514.404 139.48 517.354 141.73 520.554 143.33C523.754 144.93 527.204 145.73 530.904 145.73C535.204 145.73 538.704 144.63 541.404 142.43C544.104 140.23 545.454 137.23 545.454 133.43C545.454 130.13 544.604 127.48 542.904 125.48C541.304 123.48 538.854 121.73 535.554 120.23C532.354 118.63 528.404 116.93 523.704 115.13C521.204 114.23 518.304 113.03 515.004 111.53C511.804 109.93 508.754 107.93 505.854 105.53C502.954 103.03 500.554 100.03 498.654 96.5298C496.754 92.9298 495.804 88.6298 495.804 83.6298C495.804 77.6298 497.304 72.4798 500.304 68.1798C503.404 63.7798 507.554 60.4298 512.754 58.1298C518.054 55.7298 523.954 54.5298 530.454 54.5298C537.154 54.5298 542.904 55.6798 547.704 57.9798C552.604 60.1798 556.654 63.0298 559.854 66.5298C563.154 69.9298 565.704 73.4798 567.504 77.1798L550.704 86.4798C549.304 83.9798 547.604 81.7298 545.604 79.7298C543.704 77.6298 541.504 75.9798 539.004 74.7798C536.504 73.4798 533.654 72.8298 530.454 72.8298C526.254 72.8298 523.104 73.8298 521.004 75.8298C518.904 77.7298 517.854 79.9798 517.854 82.5798C517.854 85.1798 518.704 87.4798 520.404 89.4798C522.104 91.3798 524.704 93.2298 528.204 95.0298C531.704 96.7298 536.104 98.4798 541.404 100.28C544.804 101.48 548.054 102.98 551.154 104.78C554.354 106.58 557.204 108.78 559.704 111.38C562.304 113.88 564.304 116.88 565.704 120.38C567.204 123.78 567.954 127.73 567.954 132.23C567.954 137.33 566.954 141.88 564.954 145.88C562.954 149.88 560.204 153.28 556.704 156.08C553.204 158.78 549.254 160.83 544.854 162.23C540.554 163.73 536.004 164.48 531.204 164.48C524.804 164.48 518.804 163.28 513.204 160.88C507.704 158.38 502.904 155.03 498.804 150.83C494.704 146.63 491.504 142.08 489.204 137.18L504.504 126.38Z" fill="url(#paint1_linear_10_250)"/>
<path d="M297.332 161.63V143.48H350.282V161.63H297.332ZM297.332 74.7798V56.6298H350.282V74.7798H297.332ZM297.332 114.83V96.9798H347.282V114.83H297.332ZM283.532 56.6298H304.232V161.63H283.532V56.6298ZM391.522 102.68L384.772 161.63H362.422L378.022 51.3798L421.972 119.18L465.922 51.3798L481.522 161.63H459.172L452.422 102.68L421.972 151.88L391.522 102.68ZM504.504 126.38C506.704 130.28 509.104 133.68 511.704 136.58C514.404 139.48 517.354 141.73 520.554 143.33C523.754 144.93 527.204 145.73 530.904 145.73C535.204 145.73 538.704 144.63 541.404 142.43C544.104 140.23 545.454 137.23 545.454 133.43C545.454 130.13 544.604 127.48 542.904 125.48C541.304 123.48 538.854 121.73 535.554 120.23C532.354 118.63 528.404 116.93 523.704 115.13C521.204 114.23 518.304 113.03 515.004 111.53C511.804 109.93 508.754 107.93 505.854 105.53C502.954 103.03 500.554 100.03 498.654 96.5298C496.754 92.9298 495.804 88.6298 495.804 83.6298C495.804 77.6298 497.304 72.4798 500.304 68.1798C503.404 63.7798 507.554 60.4298 512.754 58.1298C518.054 55.7298 523.954 54.5298 530.454 54.5298C537.154 54.5298 542.904 55.6798 547.704 57.9798C552.604 60.1798 556.654 63.0298 559.854 66.5298C563.154 69.9298 565.704 73.4798 567.504 77.1798L550.704 86.4798C549.304 83.9798 547.604 81.7298 545.604 79.7298C543.704 77.6298 541.504 75.9798 539.004 74.7798C536.504 73.4798 533.654 72.8298 530.454 72.8298C526.254 72.8298 523.104 73.8298 521.004 75.8298C518.904 77.7298 517.854 79.9798 517.854 82.5798C517.854 85.1798 518.704 87.4798 520.404 89.4798C522.104 91.3798 524.704 93.2298 528.204 95.0298C531.704 96.7298 536.104 98.4798 541.404 100.28C544.804 101.48 548.054 102.98 551.154 104.78C554.354 106.58 557.204 108.78 559.704 111.38C562.304 113.88 564.304 116.88 565.704 120.38C567.204 123.78 567.954 127.73 567.954 132.23C567.954 137.33 566.954 141.88 564.954 145.88C562.954 149.88 560.204 153.28 556.704 156.08C553.204 158.78 549.254 160.83 544.854 162.23C540.554 163.73 536.004 164.48 531.204 164.48C524.804 164.48 518.804 163.28 513.204 160.88C507.704 158.38 502.904 155.03 498.804 150.83C494.704 146.63 491.504 142.08 489.204 137.18L504.504 126.38Z" fill="url(#paint2_linear_10_250)"/>
<defs>
<linearGradient id="paint0_linear_10_250" x1="141.056" y1="150.289" x2="461.856" y2="225.084" gradientUnits="userSpaceOnUse">
<stop stop-color="#1A2850"/>
<stop offset="1" stop-color="#487FAD"/>
</linearGradient>
<linearGradient id="paint1_linear_10_250" x1="253.959" y1="161.509" x2="806.304" y2="161.509" gradientUnits="userSpaceOnUse">
<stop stop-color="#1A2850"/>
<stop offset="1" stop-color="#487FAD"/>
</linearGradient>
<linearGradient id="paint2_linear_10_250" x1="253.959" y1="161.509" x2="806.304" y2="161.509" gradientUnits="userSpaceOnUse">
<stop stop-color="#1A2850"/>
<stop offset="1" stop-color="#487FAD"/>
</linearGradient>
</defs>
</svg>
