<svg width="912" height="245" viewBox="0 0 912 245" fill="none" xmlns="http://www.w3.org/2000/svg">
<path d="M114.299 205.065C114.324 217.267 114.332 229.46 114.391 241.661C114.391 242.819 113.972 243.083 112.934 243.074C108.219 243.032 103.504 242.998 98.7886 243.074C97.3231 243.1 97.2812 242.368 97.2896 241.252C97.3231 234.764 97.2477 228.276 97.3482 221.788C97.3733 220.281 96.9043 219.736 95.5057 219.446C84.0491 217.079 73.4467 212.575 63.6734 206.07C62.3167 205.168 61.5044 204.989 60.2314 206.351C55.9352 210.949 51.4296 215.342 47.058 219.864C46.0614 220.894 45.4835 221.166 44.3111 219.949C37.1256 212.499 29.8479 205.133 22.5535 197.802C21.6156 196.857 21.6909 196.38 22.5787 195.495C27.2769 190.803 31.883 186.018 36.5812 181.327C37.4103 180.501 37.4187 179.939 36.8241 179.019C30.1578 168.759 25.4847 157.639 23.1649 145.54C22.9137 144.246 22.2269 144.109 21.1382 144.118C14.7567 144.161 8.37514 144.092 1.9936 144.178C0.469402 144.195 -0.0163332 143.837 0.000416286 142.211C0.0757888 131.985 0.0674141 121.759 0.000416286 111.533C-0.00795843 109.949 0.293533 109.344 2.0271 109.379C8.40864 109.498 14.7902 109.379 21.1717 109.464C22.4949 109.481 22.9807 109.004 23.2151 107.778C25.5182 95.8999 30.074 84.9587 36.6398 74.8945C37.494 73.5832 37.2847 72.8935 36.2881 71.8973C31.682 67.308 27.1764 62.6249 22.5452 58.0611C21.5821 57.1075 21.6742 56.6562 22.5619 55.7622C29.8982 48.3715 37.2093 40.9553 44.4618 33.471C45.5003 32.3982 46.0028 32.6707 46.8821 33.5732C51.304 38.1455 55.8263 42.6157 60.2147 47.2221C61.3201 48.3801 62.0655 48.6099 63.4808 47.6563C73.3295 41.0149 84.0407 36.4511 95.6481 34.1181C96.8624 33.8712 97.3398 33.3944 97.3231 32.0491C97.2477 25.561 97.3231 19.0729 97.2561 12.5848C97.2393 11.0947 97.4738 10.4731 99.1487 10.5157C103.721 10.6434 108.302 10.5838 112.883 10.5413C113.872 10.5413 114.391 10.686 114.382 11.9036C114.324 24.105 114.315 36.2979 114.29 48.4993C113.612 49.1634 112.749 49.0442 111.929 49.0612C102.532 49.2911 93.4456 51.1814 84.8531 54.9874C66.2193 63.2465 52.5602 76.8188 44.1687 95.6871C38.9596 107.412 36.9999 119.843 38.0133 132.606C39.4537 150.776 46.3043 166.639 58.6235 179.998C67.3834 189.501 77.8267 196.389 89.9114 200.553C96.9462 202.971 104.232 204.444 111.719 204.52C112.607 204.529 113.545 204.367 114.29 205.082L114.299 205.065Z" fill="#487FAD"/>
<path d="M114.299 205.064C72.534 205.523 36.3552 169.686 37.2764 124.788C38.1138 84.0119 72.0482 48.1314 114.299 48.4976C114.324 53.2913 114.274 58.085 114.408 62.8787C114.449 64.4965 113.478 64.3432 112.573 64.3773C105.17 64.6157 97.9847 65.9865 91.1928 69.0007C70.4654 78.1794 57.493 94.0761 53.8583 116.716C50.2991 138.871 57.0323 157.978 73.5724 173.219C82.5836 181.521 93.1776 186.451 105.103 188.477C107.691 188.92 110.321 189.184 112.959 189.048C114.039 188.988 114.399 189.363 114.382 190.487C114.307 195.349 114.315 200.21 114.29 205.081L114.299 205.064Z" fill="#9BC2E3"/>
<path d="M113.679 205.059C113.654 217.26 113.645 229.453 113.587 241.654C113.587 242.812 114.006 243.076 115.044 243.068C119.759 243.025 124.474 242.991 129.189 243.068C130.654 243.093 130.696 242.361 130.688 241.246C130.654 234.758 130.73 228.27 130.629 221.781C130.604 220.274 131.073 219.729 132.472 219.44C143.928 217.073 154.531 212.569 164.304 206.064C165.661 205.161 166.473 204.982 167.746 206.345C172.042 210.942 176.548 215.336 180.92 219.857C181.916 220.887 182.494 221.16 183.666 219.942C190.852 212.492 198.13 205.127 205.424 197.796C206.362 196.851 206.287 196.374 205.399 195.488C200.701 190.797 196.095 186.012 191.396 181.32C190.567 180.494 190.559 179.932 191.153 179.013C197.82 168.753 202.493 157.633 204.813 145.533C205.064 144.239 205.751 144.103 206.839 144.111C213.221 144.154 219.602 144.086 225.984 144.171C227.508 144.188 227.994 143.83 227.977 142.204C227.902 131.978 227.91 121.752 227.977 111.526C227.985 109.942 227.684 109.338 225.95 109.372C219.569 109.491 213.187 109.372 206.806 109.457C205.483 109.474 204.997 108.997 204.762 107.771C202.459 95.8934 197.903 84.9521 191.338 74.8879C190.483 73.5767 190.693 72.887 191.689 71.8908C196.296 67.3014 200.801 62.6184 205.432 58.0546C206.395 57.1009 206.303 56.6497 205.416 55.7556C198.079 48.365 190.768 40.9488 183.516 33.4645C182.477 32.3916 181.975 32.6641 181.095 33.5666C176.674 38.139 172.151 42.6091 167.763 47.2155C166.657 48.3735 165.912 48.6034 164.497 47.6498C154.648 41.0084 143.937 36.4446 132.329 34.1116C131.115 33.8646 130.638 33.3878 130.654 32.0425C130.73 25.5544 130.654 19.0663 130.721 12.5782C130.738 11.0881 130.504 10.4666 128.829 10.5092C124.256 10.6369 119.675 10.5773 115.094 10.5347C114.106 10.5347 113.587 10.6794 113.595 11.897C113.654 24.0984 113.662 36.2913 113.687 48.4927C114.366 49.1568 115.228 49.0376 116.049 49.0547C125.445 49.2846 134.532 51.1748 143.124 54.9808C161.758 63.24 175.417 76.8122 183.809 95.6805C189.018 107.405 190.978 119.836 189.964 132.6C188.524 150.77 181.673 166.633 169.354 179.992C160.594 189.494 150.151 196.382 138.066 200.546C131.031 202.964 123.745 204.437 116.258 204.514C115.371 204.522 114.433 204.361 113.687 205.076L113.679 205.059Z" fill="#487FAD"/>
<path d="M113.679 205.059C155.444 205.518 191.623 169.681 190.701 124.783C189.864 84.0068 155.929 48.1264 113.679 48.4925C113.654 53.2862 113.704 58.0799 113.57 62.8736C113.528 64.4914 114.5 64.3381 115.404 64.3722C122.807 64.6106 129.993 65.9814 136.785 68.9956C157.512 78.1743 170.485 94.071 174.119 116.711C177.679 138.866 170.945 157.973 154.405 173.214C145.394 181.516 134.8 186.446 122.874 188.472C120.287 188.915 117.657 189.179 115.019 189.043C113.939 188.983 113.578 189.358 113.595 190.482C113.671 195.343 113.662 200.205 113.687 205.076L113.679 205.059Z" fill="#487FAD"/>
<path d="M113.679 48.5147C155.444 48.0549 191.623 83.8928 190.701 128.79C189.864 169.566 155.929 205.447 113.679 205.081C113.654 200.287 113.704 195.493 113.57 190.7C113.528 189.082 114.5 189.235 115.404 189.201C122.807 188.963 129.993 187.592 136.785 184.578C157.512 175.399 170.485 159.502 174.119 136.862C177.679 114.707 170.945 95.6003 154.405 80.3592C145.394 72.0575 134.8 67.1276 122.874 65.1011C120.287 64.6584 117.657 64.3944 115.019 64.5306C113.939 64.5902 113.579 64.2156 113.595 63.0917C113.671 58.2298 113.662 53.368 113.687 48.4977L113.679 48.5147Z" fill="#9BC2E3"/>
<path d="M178.7 89.8532C179.764 89.7851 179.379 90.5599 179.236 91.0963C178.474 94.0509 177.687 96.9969 176.908 99.943C175.442 105.511 173.977 111.08 172.503 116.649C172.377 117.134 172.377 117.815 171.917 117.985C171.28 118.224 170.995 117.5 170.619 117.117C169.547 116.053 168.5 114.954 167.436 113.873C166.063 112.476 166.046 112.468 164.714 113.822C159.832 118.777 154.958 123.75 150.075 128.705C143.191 135.704 136.282 142.686 129.432 149.728C128.477 150.707 127.899 150.784 126.911 149.753C121.961 144.619 116.92 139.587 111.962 134.461C110.957 133.422 110.379 133.346 109.307 134.444C100.966 143.01 92.5662 151.507 84.1747 160.022C82.7175 161.495 82.7175 161.486 81.2185 159.954C79.4179 158.106 77.5587 156.309 75.8168 154.402C75.0882 153.602 74.7029 153.67 73.9911 154.402C69.9377 158.6 65.8341 162.746 61.7305 166.902C59.5698 169.09 59.9885 168.911 58.054 166.97C56.0357 164.943 54.0592 162.866 52.0158 160.865C51.2035 160.073 51.1197 159.511 51.9739 158.651C59.2767 151.277 66.5627 143.87 73.8152 136.445C74.6443 135.602 75.1887 135.611 75.9926 136.462C77.8351 138.429 79.8031 140.268 81.6204 142.26C82.4914 143.214 82.9939 143.137 83.8732 142.243C92.3401 133.567 100.874 124.959 109.332 116.274C110.312 115.269 110.873 115.218 111.853 116.231C116.853 121.391 121.936 126.466 126.928 131.634C127.908 132.647 128.435 132.63 129.415 131.617C138.074 122.736 146.793 113.915 155.494 105.077C156.594 103.959 156.585 102.838 155.469 101.714C154.522 100.76 153.568 99.8067 152.621 98.8531C152.236 98.4699 151.508 98.2145 151.641 97.5929C151.792 96.8862 152.605 96.9543 153.157 96.8011C156.105 95.9752 159.061 95.1748 162.018 94.3744C167.118 92.978 172.218 91.5816 177.327 90.1853C177.754 90.066 178.189 89.9724 178.7 89.8447V89.8532Z" fill="#487FAD"/>
<path d="M132.681 167.132C132.681 171.602 132.681 176.063 132.681 180.534C132.681 182.926 132.673 182.918 130.353 183.624C119.323 186.979 108.319 186.621 97.323 183.411C96.2678 183.105 95.9077 182.56 95.9077 181.487C95.9328 172.155 95.9328 162.832 95.9245 153.5C95.9245 152.708 96.1757 152.12 96.7368 151.558C101.025 147.207 105.313 142.857 109.542 138.454C110.555 137.399 111.141 137.995 111.853 138.727C116.719 143.691 121.593 148.646 126.467 153.602C127.6 154.754 128.748 154.743 129.909 153.568C130.462 153.006 130.998 152.435 131.559 151.89C132.271 151.201 132.614 151.482 132.673 152.376C132.698 152.767 132.69 153.168 132.69 153.559C132.69 158.081 132.69 162.602 132.69 167.132H132.681Z" fill="#E38B06"/>
<path d="M115.831 67.6216C130.654 67.7919 144.69 73.8713 156.298 85.7918C156.884 86.3963 157.353 87.1115 157.956 87.6905C158.852 88.559 158.777 89.0443 157.546 89.3679C154.908 90.0576 152.27 90.7728 149.648 91.5221C148.853 91.7434 148.275 91.5732 147.697 90.9857C142.32 85.4937 135.897 81.6792 128.636 79.525C112.548 74.7654 97.6747 77.4645 84.3421 87.8778C75.2221 94.996 69.4686 104.43 66.839 115.78C65.4655 121.715 65.1389 127.743 66.169 133.797C66.3532 134.887 66.1439 135.721 65.3064 136.522C63.3132 138.412 61.4122 140.404 59.4943 142.371C58.7992 143.086 58.3638 143.189 58.0623 142.022C56.3036 135.227 55.6838 128.339 56.3538 121.349C57.007 114.597 58.615 108.108 61.4457 101.944C66.6631 90.5684 74.6275 81.7558 85.2969 75.4806C94.2076 70.2356 103.847 67.6812 115.823 67.6302L115.831 67.6216Z" fill="#E38B06"/>
<path d="M135.947 164.585C135.947 159.434 135.981 154.283 135.922 149.14C135.905 147.905 136.307 147.003 137.153 146.151C146.349 136.853 155.527 127.547 164.664 118.19C165.661 117.168 166.289 116.946 167.302 118.138C168.642 119.722 170.15 121.161 171.632 122.609C172.201 123.162 172.478 123.75 172.495 124.533C172.763 136.487 170.016 147.616 163.852 157.85C157.588 168.247 148.794 175.714 138.024 180.891C137.873 180.968 137.714 181.027 137.564 181.087C135.914 181.742 135.922 181.742 135.931 179.869C135.931 174.777 135.931 169.686 135.931 164.594L135.947 164.585Z" fill="#E38B06"/>
<path d="M92.6667 168.732C92.6667 172.41 92.6751 176.089 92.6667 179.759C92.6667 181.41 92.3484 181.666 90.9499 181.036C85.2634 178.49 80.0795 175.127 75.465 170.878C73.4467 169.022 71.5205 167.072 69.7451 164.96C69.0667 164.151 69.1421 163.666 69.8372 162.993C71.2106 161.674 72.5506 160.311 73.8487 158.915C74.5773 158.123 75.1468 158.055 75.9089 158.864C77.5168 160.575 79.2169 162.184 80.8248 163.896C82.5919 165.778 82.7678 165.803 84.6102 163.93C86.8462 161.648 89.0823 159.366 91.3351 157.101C91.6282 156.803 91.9046 156.233 92.3903 156.463C92.8677 156.684 92.6583 157.272 92.6583 157.697C92.6751 161.376 92.6583 165.054 92.6583 168.724L92.6667 168.732Z" fill="#E38B06"/>
<path d="M295.06 161.63V143.48H348.01V161.63H295.06ZM295.06 74.7798V56.6298H348.01V74.7798H295.06ZM295.06 114.83V96.9798H345.01V114.83H295.06ZM281.26 56.6298H301.96V161.63H281.26V56.6298ZM389.251 102.68L382.501 161.63H360.151L375.751 51.3798L419.701 119.18L463.651 51.3798L479.251 161.63H456.901L450.151 102.68L419.701 151.88L389.251 102.68ZM502.233 126.38C504.433 130.28 506.833 133.68 509.433 136.58C512.133 139.48 515.083 141.73 518.283 143.33C521.483 144.93 524.933 145.73 528.633 145.73C532.933 145.73 536.433 144.63 539.133 142.43C541.833 140.23 543.183 137.23 543.183 133.43C543.183 130.13 542.333 127.48 540.633 125.48C539.033 123.48 536.583 121.73 533.283 120.23C530.083 118.63 526.133 116.93 521.433 115.13C518.933 114.23 516.033 113.03 512.733 111.53C509.533 109.93 506.483 107.93 503.583 105.53C500.683 103.03 498.283 100.03 496.383 96.5298C494.483 92.9298 493.533 88.6298 493.533 83.6298C493.533 77.6298 495.033 72.4798 498.033 68.1798C501.133 63.7798 505.283 60.4298 510.483 58.1298C515.783 55.7298 521.683 54.5298 528.183 54.5298C534.883 54.5298 540.633 55.6798 545.433 57.9798C550.333 60.1798 554.383 63.0298 557.583 66.5298C560.883 69.9298 563.433 73.4798 565.233 77.1798L548.433 86.4798C547.033 83.9798 545.333 81.7298 543.333 79.7298C541.433 77.6298 539.233 75.9798 536.733 74.7798C534.233 73.4798 531.383 72.8298 528.183 72.8298C523.983 72.8298 520.833 73.8298 518.733 75.8298C516.633 77.7298 515.583 79.9798 515.583 82.5798C515.583 85.1798 516.433 87.4798 518.133 89.4798C519.833 91.3798 522.433 93.2298 525.933 95.0298C529.433 96.7298 533.833 98.4798 539.133 100.28C542.533 101.48 545.783 102.98 548.883 104.78C552.083 106.58 554.933 108.78 557.433 111.38C560.033 113.88 562.033 116.88 563.433 120.38C564.933 123.78 565.683 127.73 565.683 132.23C565.683 137.33 564.683 141.88 562.683 145.88C560.683 149.88 557.933 153.28 554.433 156.08C550.933 158.78 546.983 160.83 542.583 162.23C538.283 163.73 533.733 164.48 528.933 164.48C522.533 164.48 516.533 163.28 510.933 160.88C505.433 158.38 500.633 155.03 496.533 150.83C492.433 146.63 489.233 142.08 486.933 137.18L502.233 126.38Z" fill="url(#paint0_linear_10_251)"/>
<path d="M283.933 213.704H299.389V217.288H287.677V223.496H298.109V227.112H287.677V233.416H299.837V237H283.933V213.704ZM315.684 228.36H321.668V231.496H315.684V228.36ZM339.066 237V212.872H339.098L351.642 230.632L350.042 230.28L362.522 212.872H362.586V237H358.874V221.288L359.13 223.208L350.714 235.112H350.65L342.042 223.208L342.682 221.448V237H339.066ZM378.7 237L389.004 212.744H389.228L399.532 237H395.244L387.98 218.6L390.668 216.776L382.38 237H378.7ZM385.164 228.36H393.132L394.412 231.528H384.044L385.164 228.36ZM436.147 237.832L418.259 220.488L419.347 220.936L419.443 237H415.667V212.904H415.827L433.459 230.248L432.595 229.992L432.531 213.704H436.243V237.832H436.147ZM452.395 237L462.699 212.744H462.923L473.227 237H468.939L461.675 218.6L464.363 216.776L456.075 237H452.395ZM458.859 228.36H466.827L468.107 231.528H457.739L458.859 228.36ZM506.984 234.856C506.685 235.155 506.237 235.443 505.64 235.72C505.064 235.997 504.413 236.253 503.688 236.488C502.962 236.723 502.216 236.904 501.448 237.032C500.68 237.181 499.954 237.256 499.272 237.256C497.394 237.256 495.698 236.968 494.184 236.392C492.69 235.816 491.4 235.027 490.312 234.024C489.245 233 488.424 231.795 487.848 230.408C487.293 229.021 487.016 227.517 487.016 225.896C487.016 223.869 487.336 222.088 487.976 220.552C488.616 218.995 489.49 217.693 490.6 216.648C491.709 215.581 492.978 214.781 494.408 214.248C495.858 213.715 497.384 213.448 498.984 213.448C500.392 213.448 501.693 213.608 502.888 213.928C504.104 214.248 505.138 214.653 505.992 215.144L504.776 218.6C504.37 218.365 503.848 218.141 503.208 217.928C502.568 217.693 501.917 217.512 501.256 217.384C500.616 217.256 500.018 217.192 499.464 217.192C498.12 217.192 496.914 217.384 495.848 217.768C494.802 218.131 493.906 218.675 493.16 219.4C492.413 220.125 491.837 221.011 491.432 222.056C491.048 223.08 490.856 224.253 490.856 225.576C490.856 226.771 491.058 227.859 491.464 228.84C491.89 229.821 492.477 230.664 493.224 231.368C493.992 232.072 494.888 232.616 495.912 233C496.957 233.363 498.109 233.544 499.368 233.544C500.093 233.544 500.797 233.48 501.48 233.352C502.162 233.224 502.738 233.021 503.208 232.744V228.872H498.856V225.288H506.984V234.856ZM524.803 213.704H540.259V217.288H528.547V223.496H538.979V227.112H528.547V233.416H540.707V237H524.803V213.704ZM558.026 237V212.872H558.058L570.602 230.632L569.002 230.28L581.482 212.872H581.546V237H577.834V221.288L578.09 223.208L569.674 235.112H569.61L561.002 223.208L561.642 221.448V237H558.026ZM600.092 213.704H615.548V217.288H603.836V223.496H614.268V227.112H603.836V233.416H615.996V237H600.092V213.704ZM653.794 237.832L635.906 220.488L636.994 220.936L637.09 237H633.314V212.904H633.474L651.106 230.248L650.242 229.992L650.178 213.704H653.89V237.832H653.794ZM670.81 213.704H686.394V217.288H680.378V237H676.666V217.288H670.81V213.704ZM737.925 218.44C737.093 218.013 736.207 217.651 735.269 217.352C734.33 217.032 733.434 216.872 732.581 216.872C731.429 216.872 730.511 217.128 729.829 217.64C729.167 218.152 728.837 218.856 728.837 219.752C728.837 220.392 729.071 220.957 729.541 221.448C730.01 221.917 730.607 222.333 731.333 222.696C732.058 223.037 732.826 223.368 733.637 223.688C734.341 223.944 735.034 224.253 735.717 224.616C736.421 224.957 737.05 225.384 737.605 225.896C738.159 226.408 738.597 227.048 738.917 227.816C739.258 228.563 739.429 229.491 739.429 230.6C739.429 231.816 739.119 232.936 738.501 233.96C737.882 234.963 736.997 235.763 735.845 236.36C734.693 236.957 733.285 237.256 731.621 237.256C730.661 237.256 729.711 237.149 728.773 236.936C727.855 236.723 726.981 236.435 726.149 236.072C725.317 235.688 724.549 235.261 723.845 234.792L725.509 231.88C726.021 232.264 726.607 232.616 727.269 232.936C727.93 233.256 728.613 233.512 729.317 233.704C730.021 233.875 730.682 233.96 731.301 233.96C731.962 233.96 732.613 233.853 733.253 233.64C733.914 233.427 734.458 233.075 734.885 232.584C735.333 232.093 735.557 231.443 735.557 230.632C735.557 229.971 735.365 229.405 734.981 228.936C734.597 228.467 734.095 228.061 733.477 227.72C732.879 227.357 732.218 227.037 731.493 226.76C730.767 226.483 730.021 226.173 729.253 225.832C728.506 225.491 727.813 225.075 727.173 224.584C726.533 224.072 726.01 223.453 725.605 222.728C725.199 222.003 724.997 221.107 724.997 220.04C724.997 218.76 725.295 217.651 725.893 216.712C726.49 215.773 727.311 215.027 728.357 214.472C729.423 213.917 730.65 213.619 732.037 213.576C733.679 213.576 735.077 213.779 736.229 214.184C737.402 214.568 738.437 215.037 739.333 215.592L737.925 218.44ZM762.63 229.448L754.022 213.704H758.598L765.158 226.248L764.038 226.312L770.502 213.704H775.078L766.342 229.448V237H762.63V229.448ZM802.463 218.44C801.631 218.013 800.746 217.651 799.807 217.352C798.869 217.032 797.973 216.872 797.119 216.872C795.967 216.872 795.05 217.128 794.367 217.64C793.706 218.152 793.375 218.856 793.375 219.752C793.375 220.392 793.61 220.957 794.079 221.448C794.549 221.917 795.146 222.333 795.871 222.696C796.597 223.037 797.365 223.368 798.175 223.688C798.879 223.944 799.573 224.253 800.255 224.616C800.959 224.957 801.589 225.384 802.143 225.896C802.698 226.408 803.135 227.048 803.455 227.816C803.797 228.563 803.967 229.491 803.967 230.6C803.967 231.816 803.658 232.936 803.039 233.96C802.421 234.963 801.535 235.763 800.383 236.36C799.231 236.957 797.823 237.256 796.159 237.256C795.199 237.256 794.25 237.149 793.311 236.936C792.394 236.723 791.519 236.435 790.687 236.072C789.855 235.688 789.087 235.261 788.383 234.792L790.047 231.88C790.559 232.264 791.146 232.616 791.807 232.936C792.469 233.256 793.151 233.512 793.855 233.704C794.559 233.875 795.221 233.96 795.839 233.96C796.501 233.96 797.151 233.853 797.791 233.64C798.453 233.427 798.997 233.075 799.423 232.584C799.871 232.093 800.095 231.443 800.095 230.632C800.095 229.971 799.903 229.405 799.519 228.936C799.135 228.467 798.634 228.061 798.015 227.72C797.418 227.357 796.757 227.037 796.031 226.76C795.306 226.483 794.559 226.173 793.791 225.832C793.045 225.491 792.351 225.075 791.711 224.584C791.071 224.072 790.549 223.453 790.143 222.728C789.738 222.003 789.535 221.107 789.535 220.04C789.535 218.76 789.834 217.651 790.431 216.712C791.029 215.773 791.85 215.027 792.895 214.472C793.962 213.917 795.189 213.619 796.575 213.576C798.218 213.576 799.615 213.779 800.767 214.184C801.941 214.568 802.975 215.037 803.871 215.592L802.463 218.44ZM819.267 213.704H834.851V217.288H828.835V237H825.123V217.288H819.267V213.704ZM851.747 213.704H867.203V217.288H855.491V223.496H865.923V227.112H855.491V233.416H867.651V237H851.747V213.704ZM884.969 237V212.872H885.001L897.545 230.632L895.945 230.28L908.425 212.872H908.489V237H904.777V221.288L905.033 223.208L896.617 235.112H896.553L887.945 223.208L888.585 221.448V237H884.969Z" fill="#E38B06"/>
<defs>
<linearGradient id="paint0_linear_10_251" x1="259.693" y1="161.509" x2="653.939" y2="161.509" gradientUnits="userSpaceOnUse">
<stop stop-color="#82B4DF"/>
<stop offset="1" stop-color="#D0E0EE"/>
</linearGradient>
</defs>
</svg>
